<svg width="215" height="73" viewBox="0 0 215 73" fill="none" xmlns="http://www.w3.org/2000/svg">
<g id="Layer_1" clip-path="url(#clip0_770_1143)">
<path id="Vector" d="M157.723 0.179688H83.8419C83.5457 0.179688 83.2445 0.179688 82.9483 0.179688C78.8574 0.409134 74.9333 1.87828 71.6975 4.39183L56.7266 15.7681C61.747 12.796 68.9112 8.56381 74.3282 5.48127C86.307 -0.417745 90.258 6.35984 90.258 6.35984C100.254 6.35984 96.4432 13.5391 96.4432 13.5391C94.6509 11.7769 91.6537 12.2388 89.4146 12.9517H89.3745C88.401 13.2675 87.4541 13.6604 86.5429 14.1265L86.3923 14.2269C85.2141 14.8109 84.1101 15.5339 83.1039 16.3806C80.2925 18.2984 75.6837 22.9825 73.0932 26.045L73.5249 25.7186C77.4692 23.666 81.8062 22.4793 86.2461 22.2377C90.6859 21.9961 95.1261 22.7054 99.2697 24.3179L99.325 24.343C99.325 24.343 112.147 29.5091 122.083 25.7688L97.613 16.4861L112.017 19.1218C112.017 19.1218 137.149 25.3823 144.8 16.481L102.94 8.62405L123.523 9.73859C123.523 9.73859 151.111 12.7107 157.723 0.179688Z" fill="url(#paint0_linear_770_1143)"/>
<path id="Vector_2" d="M86.74 6.78718C86.5578 6.44685 86.2904 6.15966 85.9639 5.95373C85.6374 5.7478 85.263 5.63018 84.8774 5.6124L82.3672 5.50195L83.1303 6.4458C83.4846 6.88744 83.9848 7.18828 84.541 7.29425L87.3173 7.84148L86.74 6.78718Z" fill="url(#paint1_linear_770_1143)"/>
<path id="Vector_3" d="M13.0098 39.6003L14.6264 34.7656H0.398438V58.2613H5.86067V48.8279H12.7336V43.9932H5.86067V39.6003H13.0098Z" fill="white"/>
<path id="Vector_4" d="M22.0061 34.7656H20.1786L18.06 39.0882H20.1385L14.375 58.2813H20.1786L21.2881 54.0341H27.8498L29.0598 58.2813H35.004L27.403 34.7857L22.0061 34.7656ZM22.5483 49.1743L24.451 41.985L26.4592 49.1743H22.5483Z" fill="white"/>
<path id="Vector_5" d="M81.0938 34.418C73.8042 34.418 70.9375 39.7748 70.9375 46.5122C70.9375 53.2496 73.8042 58.6064 81.0938 58.6064C88.3835 58.6064 91.2903 53.2496 91.2903 46.5122C91.2903 39.7748 88.4237 34.418 81.0938 34.418ZM81.0938 53.837C78.433 53.837 76.3947 51.6632 76.3947 46.5122C76.3947 41.3612 78.433 39.2024 81.0938 39.2024C83.7547 39.2024 85.8281 41.3813 85.8281 46.5273C85.8281 51.6732 83.7898 53.837 81.0938 53.837Z" fill="white"/>
<path id="Vector_6" d="M107.492 48.381L100.82 34.7656H94.6699L92.3906 39.1886H94.6699V58.2613H100.167V44.5806L106.905 58.2613H112.984V34.7656H107.492V48.381Z" fill="white"/>
<path id="Vector_7" d="M134.429 34.418C129.971 34.418 126.898 34.7292 126.898 34.7292V58.1947C129.341 58.4882 131.799 58.6257 134.258 58.6064C141.859 58.6064 145.349 53.8722 145.349 46.3766C145.349 37.9775 140.097 34.5887 134.429 34.418ZM134.931 53.837C133.897 53.837 133.033 53.8019 132.341 53.7366V39.2928C133.157 39.2164 133.976 39.1812 134.796 39.1874C138.491 39.1874 139.876 42.782 139.876 46.3064C139.876 49.8307 139.028 53.837 134.946 53.837H134.931Z" fill="white"/>
<path id="Vector_8" d="M165.442 41.8131C165.442 38.0126 162.731 34.418 155.582 34.418C152.921 34.418 149.371 34.7292 149.407 34.7292V58.2801H155.19V47.7372L161.44 58.2801H167.696L161.476 48.8266C163.147 47.8928 165.266 46.3415 165.442 41.8131ZM155.19 46.9138V39.2024C155.813 39.1322 155.19 39.1321 155.762 39.1321C158.805 39.1321 159.909 40.4475 159.944 42.0691C160.015 44.509 157.459 46.9138 155.19 46.9138Z" fill="white"/>
<path id="Vector_9" d="M174.993 34.7656H169.531V58.2613H174.993V34.7656Z" fill="white"/>
<path id="Vector_10" d="M187.466 51.1071L183.319 34.7656H177.375L184.253 58.2613H190.609L197.452 34.7656H191.648L187.466 51.1071Z" fill="white"/>
<path id="Vector_11" d="M205.4 53.4266V48.8279H212.102V43.9932H205.4V39.6003H212.554L213.844 34.7656H199.938V58.2613H214.05V53.4266H205.4Z" fill="white"/>
<path id="Vector_12" d="M47.306 53.4266H42.9232V34.7656H37.4609V58.2613H52.0102V54.9628V53.4266V49.4203L47.306 51.3582V53.4266Z" fill="white"/>
<path id="Vector_13" d="M68.3945 52.9183C67.076 53.4939 65.651 53.7848 64.2124 53.7718C60.9291 53.7718 58.7853 51.1411 58.7853 46.5474C58.7853 40.8442 61.8629 39.2577 65.1111 39.2577C66.1041 39.2516 67.0868 39.4588 67.9928 39.8652L69.8454 35.2414C68.3274 34.6926 66.7251 34.4139 65.1111 34.418C58.6498 34.418 53.3281 37.8721 53.3281 46.5122C53.3281 56.2218 59.4782 58.5613 63.9012 58.5613C65.9377 58.5581 67.9556 58.1733 69.8504 57.4267L68.3945 52.9083V52.9183Z" fill="white"/>
<path id="Vector_14" d="M39.1583 72.0014C38.9296 72.1775 38.6841 72.3305 38.4253 72.4582C38.1497 72.5872 37.8599 72.6832 37.5618 72.7444C37.2197 72.8131 36.8715 72.8467 36.5226 72.8448C35.9571 72.8502 35.3966 72.7391 34.8759 72.5185C34.3867 72.3131 33.943 72.0128 33.5706 71.6349C33.1964 71.2538 32.9027 70.8014 32.707 70.3045C32.494 69.7818 32.3865 69.2222 32.3907 68.6578C32.3885 68.0978 32.4924 67.5424 32.697 67.0211C32.8955 66.5215 33.1907 66.066 33.5655 65.6806C33.9406 65.2939 34.3896 64.9866 34.8859 64.777C35.4211 64.5513 35.997 64.4385 36.5778 64.4456C36.9149 64.4423 37.2514 64.4743 37.5819 64.541C37.8721 64.5955 38.1551 64.683 38.4253 64.8021C38.675 64.9081 38.9124 65.0411 39.1332 65.1987C39.3493 65.3509 39.554 65.5187 39.7457 65.7007L38.832 66.755C38.5227 66.4655 38.1746 66.2205 37.7977 66.0271C37.4129 65.8354 36.9876 65.739 36.5577 65.7459C36.1875 65.7427 35.8209 65.8197 35.4833 65.9718C35.1607 66.1191 34.8706 66.329 34.6299 66.5893C34.3891 66.8549 34.2001 67.1631 34.0726 67.498C33.9398 67.858 33.8734 68.239 33.8768 68.6226C33.8739 69.0078 33.9402 69.3905 34.0726 69.7522C34.1988 70.0924 34.3878 70.4058 34.6299 70.676C34.869 70.9394 35.1595 71.1512 35.4833 71.2985C35.8209 71.4506 36.1875 71.5277 36.5577 71.5244C37 71.5368 37.4383 71.4384 37.8329 71.2383C38.2168 71.0301 38.5714 70.7718 38.8872 70.4701L39.8059 71.3939C39.6091 71.6158 39.3923 71.8191 39.1583 72.0014Z" fill="white"/>
<path id="Vector_15" d="M57.196 72.7056H55.6899L54.8666 70.7477H51.0209L50.1875 72.7056H48.7266L52.2961 64.5273H53.6215L57.196 72.7056ZM52.9387 66.2343L51.548 69.4825H54.3444L52.9387 66.2343Z" fill="white"/>
<path id="Vector_16" d="M71.9193 72.7043L69.9112 69.8728H68.1189V72.7043H66.7031V64.5862H70.3229C70.7497 64.581 71.1748 64.642 71.583 64.767C71.929 64.8708 72.2514 65.0413 72.5318 65.269C72.7913 65.4902 72.9959 65.7686 73.1293 66.0823C73.2737 66.4218 73.3455 66.7878 73.3401 67.1567C73.3445 67.4657 73.2952 67.7732 73.1945 68.0654C73.1012 68.3221 72.9654 68.5614 72.7929 68.7733C72.6203 68.9738 72.4149 69.1435 72.1854 69.2753C71.9422 69.424 71.6783 69.5356 71.4022 69.6067L73.5912 72.6792L71.9193 72.7043ZM71.4575 66.2179C71.092 65.9684 70.6543 65.8466 70.2124 65.8715H68.1289V68.6126H70.2224C70.6609 68.6361 71.0934 68.5026 71.4424 68.2361C71.5825 68.109 71.6945 67.9541 71.7711 67.7811C71.8477 67.6082 71.8873 67.4212 71.8873 67.232C71.8873 67.0429 71.8477 66.8558 71.7711 66.6829C71.6945 66.51 71.5825 66.355 71.4424 66.2279L71.4575 66.2179Z" fill="white"/>
<path id="Vector_17" d="M100.029 72.7043L98.0205 69.8728H96.2283V72.7043H94.8125V64.5863H98.4322C98.8591 64.5807 99.2843 64.6417 99.6924 64.767C100.039 64.8686 100.362 65.0394 100.641 65.2691C100.902 65.4888 101.107 65.7676 101.239 66.0824C101.383 66.4219 101.455 66.7878 101.45 67.1568C101.454 67.4658 101.405 67.7732 101.304 68.0655C101.213 68.3231 101.077 68.5627 100.902 68.7733C100.731 68.975 100.525 69.1449 100.295 69.2754C100.052 69.424 99.7877 69.5357 99.5116 69.6067L101.706 72.6792L100.029 72.7043ZM99.5618 66.2179C99.1975 65.966 98.7589 65.8439 98.3168 65.8715H96.2333V68.6127H98.3268C98.7668 68.636 99.2009 68.5026 99.5518 68.2361C99.7002 68.1157 99.8184 67.9621 99.8969 67.7877C99.9753 67.6134 100.012 67.4231 100.004 67.2321C100.017 67.04 99.9835 66.8476 99.9066 66.6711C99.8297 66.4945 99.7114 66.3391 99.5618 66.2179Z" fill="white"/>
<path id="Vector_18" d="M117.338 65.8712H112.744V67.9597H116.795V69.2499H112.724V71.4188H117.378V72.704H111.328V64.5859H117.353L117.338 65.8712Z" fill="white"/>
<path id="Vector_19" d="M132.853 64.5859H134.269V72.704H133.079L128.611 66.9305V72.704H127.195V64.5859H128.516L132.853 70.1988V64.5859Z" fill="white"/>
<path id="Vector_20" d="M147.915 72.704H146.479V65.9063H143.898V64.5859H150.485V65.9063H147.915V72.704Z" fill="white"/>
<path id="Vector_21" d="M166.868 72.7056H165.362L164.538 70.7477H160.698L159.859 72.7056H158.398L161.978 64.5273H163.298L166.868 72.7056ZM162.611 66.2343L161.22 69.4825H164.016L162.611 66.2343Z" fill="white"/>
<path id="Vector_22" d="M176.383 64.5859H177.799V71.4188H182.061V72.704H176.383V64.5859Z" fill="white"/>
</g>
<defs>
<linearGradient id="paint0_linear_770_1143" x1="99.089" y1="-4.94115" x2="115.541" y2="21.2002" gradientUnits="userSpaceOnUse">
<stop stop-color="#B27F2A"/>
<stop offset="0.06" stop-color="#B7862E"/>
<stop offset="0.14" stop-color="#C49939"/>
<stop offset="0.24" stop-color="#DAB84C"/>
<stop offset="0.33" stop-color="#F4DD62"/>
<stop offset="0.52" stop-color="#F4E38B"/>
<stop offset="0.66" stop-color="#F4DD62"/>
<stop offset="1" stop-color="#B27F2A"/>
</linearGradient>
<linearGradient id="paint1_linear_770_1143" x1="83.6775" y1="4.75893" x2="100.129" y2="30.9004" gradientUnits="userSpaceOnUse">
<stop stop-color="#B27F2A"/>
<stop offset="0.06" stop-color="#B7862E"/>
<stop offset="0.14" stop-color="#C49939"/>
<stop offset="0.24" stop-color="#DAB84C"/>
<stop offset="0.33" stop-color="#F4DD62"/>
<stop offset="0.52" stop-color="#F4E38B"/>
<stop offset="0.66" stop-color="#F4DD62"/>
<stop offset="1" stop-color="#B27F2A"/>
</linearGradient>
<clipPath id="clip0_770_1143">
<rect width="213.655" height="72.6658" fill="white" transform="translate(0.398438 0.179688)"/>
</clipPath>
</defs>
</svg>
